<?xml version="1.0" encoding="utf-8"?>
<!-- Generator: Adobe Illustrator 25.2.0, SVG Export Plug-In . SVG Version: 6.00 Build 0)  -->
<svg version="1.1" id="Layer_1" xmlns="http://www.w3.org/2000/svg" xmlns:xlink="http://www.w3.org/1999/xlink" x="0px" y="0px"
	 viewBox="0 0 2000 2000" style="enable-background:new 0 0 2000 2000;" xml:space="preserve">
<style type="text/css">
	.st0{opacity:0.95;fill:#2A2AFF;}
	.st1{fill:#FFFFFF;}
	.st2{opacity:0.24;fill:#BFBFBF;}
</style>
<rect class="st0" width="2000" height="2000"/>
<g>
	<g>
		<path class="st1" d="M880.01,853.67c-47.04-39.76-99.97-44.85-140.83-44.85h-98.26v383.48h97.71
			c63.97,0,101.85-12.01,139.75-44.32c45.27-38.67,67.27-86.79,67.27-147.13C945.64,920.54,904.52,874.16,880.01,853.67z
			 M842.86,1108.68c-33.98,28.24-72.37,31.86-102.02,31.86H694.9V860.57h45.95c90.94,0,149.71,55.06,149.71,140.26
			C890.55,1056.87,864.61,1090.41,842.86,1108.68z"/>
		<polygon class="st1" points="1092.02,1057.57 992.72,810.53 992.03,808.81 932.65,808.81 1092.02,1192.29 1251.38,808.81 
			1192,808.81 		"/>
		<rect x="1274.66" y="808.81" class="st1" width="53.98" height="383.48"/>
		<polygon class="st1" points="1592.18,808.81 1358.18,808.81 1358.18,860.57 1448.19,860.57 1448.19,1192.29 1502.17,1192.29 
			1502.17,860.57 1592.18,860.57 		"/>
		<polygon class="st1" points="1897.93,808.81 1635.01,808.81 1635.01,860.57 1806.13,860.57 1603.88,1192.29 1887.36,1192.29 
			1887.36,1140.53 1695.68,1140.53 		"/>
	</g>
	<g>
		<g>
			<g>
				<g>
					<g>
						<path class="st1" d="M319.98,1066.64l-24.77,47.84l-5.9,11.38c-10.9,21.04-27.19,38.16-46.7,50.03
							c-19.5,11.86-42.21,18.47-65.9,18.47l18.72-34l34.2-62.1l51.89-18.16L319.98,1066.64z"/>
						<polygon class="st1" points="358.51,993.35 330.84,1046.78 102.07,1126.48 						"/>
						<polygon class="st1" points="388.71,933.9 357.81,993.57 357.31,994.54 355.33,995.58 316.96,1015.81 257.88,1046.96 
							268.64,1027.43 358.5,867.21 370.35,906.54 						"/>
						<polygon class="st2" points="358.5,993.35 259.08,1045.77 269.83,1026.24 						"/>
						<g>
							<path class="st1" d="M594.42,1193.15c-47.38,0-90.81-26.41-112.59-68.49L435.32,1034l19.94-9.18l41.86-19.25L594.42,1193.15z
								"/>
							<polygon class="st1" points="489.61,991.08 445.02,1006.68 424.92,1013.71 353.45,876.39 365.94,853.7 392.4,805.64 							
								"/>
						</g>
						<polygon class="st1" points="569.18,978.91 211.17,1131.75 229.58,1098.32 319.92,1066.7 						"/>
					</g>
				</g>
			</g>
			<polygon class="st2" points="305.8,1091.17 298.71,1105.62 210.17,1132.65 			"/>
			<polygon class="st1" points="567.53,972.19 589.7,969.06 574.96,986.62 576.08,976.86 			"/>
		</g>
	</g>
</g>
</svg>
